<svg width="16" height="16" viewBox="0 0 16 16" fill="none" xmlns="http://www.w3.org/2000/svg">
<g id="attachment-2">
<path id="Vector" d="M9.88585 5.17124L6.11518 8.94257C6.05151 9.00407 6.00072 9.07763 5.96578 9.15897C5.93084 9.2403 5.91245 9.32778 5.91168 9.4163C5.91091 9.50482 5.92778 9.59261 5.9613 9.67454C5.99482 9.75647 6.04432 9.83091 6.10692 9.8935C6.16952 9.9561 6.24395 10.0056 6.32588 10.0391C6.40781 10.0726 6.4956 10.0895 6.58412 10.0887C6.67264 10.088 6.76012 10.0696 6.84145 10.0346C6.92279 9.9997 6.99635 9.94891 7.05785 9.88524L10.8292 6.11457C11.2043 5.73947 11.415 5.23072 11.415 4.70024C11.415 4.16976 11.2043 3.66101 10.8292 3.2859C10.4541 2.9108 9.94533 2.70007 9.41485 2.70007C8.88437 2.70007 8.37562 2.9108 8.00052 3.2859L4.22918 7.05724C3.91323 7.36532 3.6616 7.73308 3.48889 8.13917C3.31617 8.54526 3.22581 8.98161 3.22305 9.42289C3.22028 9.86418 3.30517 10.3016 3.47278 10.7098C3.64039 11.1181 3.8874 11.4889 4.19946 11.801C4.51152 12.113 4.88244 12.3599 5.29069 12.5275C5.69893 12.695 6.13639 12.7799 6.57767 12.777C7.01896 12.7742 7.45529 12.6838 7.86136 12.511C8.26742 12.3382 8.63514 12.0866 8.94318 11.7706L12.7145 7.9999L13.6572 8.94257L9.88585 12.7139C9.45249 13.1473 8.93801 13.491 8.3718 13.7256C7.80558 13.9601 7.19872 14.0808 6.58585 14.0808C5.97298 14.0808 5.36612 13.9601 4.7999 13.7256C4.23369 13.491 3.71921 13.1473 3.28585 12.7139C2.85249 12.2805 2.50873 11.7661 2.27419 11.1999C2.03966 10.6336 1.91895 10.0268 1.91895 9.41391C1.91895 8.80104 2.03966 8.19417 2.27419 7.62796C2.50873 7.06174 2.85249 6.54727 3.28585 6.1139L7.05785 2.34324C7.68652 1.73604 8.52853 1.40006 9.40252 1.40766C10.2765 1.41525 11.1126 1.76582 11.7306 2.38384C12.3486 3.00187 12.6992 3.83791 12.7068 4.7119C12.7144 5.58589 12.3784 6.4279 11.7712 7.05657L8.00052 10.8292C7.81474 11.015 7.5942 11.1623 7.35149 11.2628C7.10878 11.3633 6.84864 11.415 6.58595 11.415C6.32325 11.4149 6.06313 11.3632 5.82044 11.2626C5.57776 11.1621 5.35725 11.0147 5.17152 10.8289C4.98578 10.6431 4.83846 10.4226 4.73796 10.1799C4.63746 9.93716 4.58575 9.67703 4.58578 9.41434C4.58581 9.15164 4.63758 8.89152 4.73814 8.64883C4.8387 8.40614 4.98607 8.18564 5.17185 7.9999L8.94318 4.22857L9.88585 5.17124Z" fill="#344054"/>
</g>
</svg>
